<?xml version="1.0" standalone="no"?>
<!DOCTYPE svg PUBLIC "-//W3C//DTD SVG 20010904//EN"
 "http://www.w3.org/TR/2001/REC-SVG-20010904/DTD/svg10.dtd">
<svg version="1.0" xmlns="http://www.w3.org/2000/svg"
 width="800.000000pt" height="800.000000pt" viewBox="0 0 800.000000 800.000000"
 preserveAspectRatio="xMidYMid meet">

<g transform="translate(0.000000,800.000000) scale(0.100000,-0.100000)"
fill="#000000" stroke="none">
<path d="M3912 7990 c2 -11 -13 -16 -65 -21 -87 -9 -107 -16 -87 -29 11 -7 8
-10 -14 -10 -51 0 -282 -74 -279 -89 3 -11 -67 -33 -107 -33 -36 0 -44 -8 -23
-24 16 -12 16 -13 1 -14 -9 0 -21 -6 -25 -13 -4 -8 -22 -17 -40 -20 -18 -4
-42 -16 -53 -27 -11 -11 -34 -23 -49 -26 -17 -4 -31 -14 -34 -24 -3 -10 -24
-28 -48 -41 -24 -12 -61 -39 -83 -60 -21 -22 -43 -39 -48 -39 -5 0 -7 -4 -3
-9 3 -6 -24 -34 -60 -62 -36 -29 -65 -58 -65 -64 0 -6 -12 -22 -26 -36 -14
-13 -35 -39 -46 -59 -12 -19 -36 -51 -53 -70 -18 -19 -40 -53 -50 -75 -9 -22
-23 -52 -31 -66 -7 -14 -17 -50 -22 -80 -5 -30 -13 -62 -17 -71 -4 -11 -3 -18
5 -18 6 0 9 -8 5 -19 -3 -10 -6 -60 -6 -112 -1 -52 -6 -112 -12 -134 -16 -60
-17 -67 -19 -98 0 -16 3 -32 8 -35 5 -4 10 -18 12 -32 1 -14 4 -41 7 -60 3
-19 7 -64 9 -100 3 -36 6 -67 7 -70 2 -7 8 -57 13 -117 2 -28 6 -56 10 -61 3
-5 8 -41 11 -80 6 -86 21 -213 35 -302 6 -36 13 -90 17 -120 3 -30 9 -59 13
-65 11 -16 12 -135 1 -135 -5 0 -13 5 -16 10 -4 6 -25 20 -47 31 -46 24 -95
20 -121 -9 -23 -26 -45 -91 -50 -153 -2 -30 -2 -44 0 -31 8 43 18 21 21 -45 3
-76 18 -123 38 -123 10 0 14 16 14 60 0 48 5 66 21 83 13 14 18 16 14 6 -4
-10 0 -19 9 -22 9 -4 16 -13 16 -22 0 -8 5 -15 10 -15 6 0 20 -19 30 -42 l20
-43 0 38 c0 30 4 37 19 37 31 0 51 -38 51 -98 0 -30 8 -91 19 -136 10 -44 26
-126 36 -181 9 -55 21 -115 27 -133 5 -18 10 -57 10 -87 0 -30 5 -55 9 -55 13
0 11 -58 -2 -65 -34 -22 -119 60 -119 114 0 16 -4 33 -10 36 -17 10 -11 -36
10 -80 21 -43 97 -105 129 -105 15 0 21 -13 30 -62 20 -102 70 -287 101 -368
28 -73 29 -81 35 -325 3 -137 2 -320 -3 -405 l-10 -155 -48 -42 c-27 -24 -52
-43 -56 -43 -28 0 -129 -63 -179 -111 -48 -46 -76 -64 -151 -94 -51 -20 -120
-49 -153 -65 -105 -50 -181 -78 -231 -85 -46 -7 -142 -47 -361 -151 -51 -24
-95 -44 -98 -44 -2 0 -42 -18 -87 -39 -46 -22 -130 -58 -188 -81 -176 -70
-256 -108 -484 -230 -96 -52 -123 -72 -144 -105 -14 -22 -54 -69 -87 -105 -70
-74 -104 -127 -139 -221 -13 -36 -42 -104 -64 -151 -22 -47 -50 -116 -62 -154
-12 -38 -28 -82 -36 -99 -7 -16 -29 -75 -49 -130 -21 -55 -56 -140 -80 -190
-166 -350 -207 -478 -230 -719 -8 -83 -15 -154 -15 -158 0 -5 1789 -8 3975 -8
l3975 0 0 939 0 939 -56 51 c-31 28 -65 54 -77 57 -12 3 -31 19 -42 37 -11 17
-33 35 -50 40 -16 5 -41 20 -55 32 -60 54 -80 58 -320 66 -124 3 -278 3 -343
-2 l-119 -9 -79 48 c-44 26 -112 64 -151 85 -39 20 -92 53 -117 72 -109 82
-109 82 -256 104 -122 19 -150 27 -235 67 -137 67 -337 152 -384 165 -23 6
-63 31 -95 60 -31 28 -79 61 -108 74 -28 14 -73 44 -100 67 -26 23 -77 55
-113 71 -87 40 -102 54 -89 79 6 11 8 22 5 25 -3 4 -1 12 4 18 6 7 13 34 17
61 3 27 9 51 12 54 4 3 12 18 19 33 10 23 9 29 -3 33 -20 8 -19 26 1 22 10 -2
19 3 21 10 3 6 -3 12 -12 12 -12 0 -16 6 -12 20 3 11 2 22 -2 24 -10 7 -5 64
7 79 16 20 26 61 13 53 -6 -4 -11 -3 -11 2 0 6 7 12 15 16 8 3 15 13 15 21 0
10 -5 13 -12 9 -7 -4 -5 2 6 14 14 16 17 31 13 62 -4 33 -3 39 8 30 10 -8 15
-8 20 1 4 6 1 15 -6 20 -11 7 -11 9 2 9 9 0 24 9 34 20 10 11 13 20 7 20 -7 0
-3 9 8 20 11 11 24 20 29 20 4 0 12 19 18 43 5 25 14 41 22 39 7 -1 10 2 6 8
-3 5 -1 10 4 10 6 0 11 4 11 10 0 5 -5 9 -12 7 -7 -1 -17 16 -22 38 -12 45
-31 70 -47 59 -7 -4 -9 0 -5 13 7 23 -16 47 -54 57 -14 4 -20 4 -14 -1 15 -11
25 -43 14 -43 -12 0 -40 29 -40 43 0 7 -4 6 -10 -3 -8 -13 -10 -12 -10 3 0 9
-6 17 -12 17 -9 1 -7 5 3 13 13 9 14 16 5 30 -8 14 -8 20 4 27 13 9 13 10 0
10 -11 1 -8 6 8 20 21 17 23 26 19 67 -3 27 -8 60 -12 75 -6 21 -3 27 14 33
23 7 71 54 71 69 0 5 7 18 17 28 12 14 17 41 19 111 2 92 27 193 61 245 16 26
8 46 -8 22 -9 -12 -9 -11 -4 5 19 52 27 109 18 129 -11 23 9 86 27 86 6 0 10
6 10 13 0 15 54 67 70 67 13 0 13 -46 -1 -71 -9 -19 -9 -19 10 -10 21 12 34
40 37 81 1 14 8 52 15 85 15 77 14 124 -5 143 -13 13 -20 10 -64 -32 -59 -57
-91 -80 -99 -72 -4 3 -1 6 5 6 7 0 12 5 12 11 0 5 -4 7 -10 4 -5 -3 -10 -1
-10 4 0 6 6 11 13 11 9 0 8 3 -2 9 -11 7 -9 15 10 40 12 17 26 31 31 31 4 0 7
6 6 13 -2 7 6 11 20 10 12 -2 22 1 22 7 0 18 -18 20 -64 6 l-46 -14 0 26 c0
30 28 211 59 377 11 61 23 146 26 190 4 44 11 97 16 117 5 21 10 54 11 75 0
21 4 43 8 48 7 9 12 39 23 120 1 11 5 25 9 30 12 19 19 123 8 130 -7 4 -7 13
1 26 12 24 18 139 6 146 -4 2 -5 9 -2 14 4 5 1 9 -5 9 -7 0 -6 6 3 15 12 12
13 20 3 47 -6 18 -15 39 -19 46 -5 6 -6 16 -2 21 3 5 1 12 -5 16 -6 4 -8 10
-5 15 3 5 0 12 -6 16 -8 4 -7 9 2 15 11 6 9 14 -7 36 -11 15 -24 48 -28 73 -9
57 -27 100 -43 100 -7 0 -13 4 -13 9 0 13 48 19 59 8 7 -7 11 -7 11 -1 0 5
-16 24 -35 42 -19 18 -34 41 -33 50 1 9 0 31 -1 47 -1 23 -4 27 -11 15 -7 -12
-12 -12 -22 -2 -9 9 -9 12 2 12 9 0 7 7 -8 23 -16 17 -18 26 -11 40 6 10 8 25
5 33 -3 8 1 14 8 14 8 0 17 7 20 16 4 12 2 15 -9 10 -8 -3 -15 -1 -15 4 0 6
11 10 24 10 14 0 28 5 31 10 3 6 -1 10 -9 10 -9 0 -16 5 -16 10 0 6 -11 8 -25
4 -22 -5 -25 -3 -25 20 0 15 6 37 14 49 16 25 30 93 21 106 -3 5 -14 7 -25 4
-15 -4 -19 -11 -15 -24 4 -13 1 -19 -8 -19 -10 0 -18 15 -22 43 -11 61 -35
117 -52 117 -10 0 -12 -6 -8 -22 7 -23 7 -23 -9 -3 -20 26 -20 35 0 35 17 0
-63 84 -81 86 -5 0 -20 4 -32 8 -13 4 -23 4 -23 -1 0 -5 10 -13 23 -18 12 -6
22 -19 22 -30 0 -11 6 -24 13 -28 13 -9 17 -47 4 -47 -4 0 -13 15 -21 33 -8
17 -17 34 -21 37 -3 3 -19 22 -34 42 -16 21 -32 36 -36 33 -4 -2 -26 13 -49
34 -23 21 -65 53 -94 72 l-52 33 -213 4 c-166 2 -212 1 -206 -9 5 -9 -17 -10
-102 -3 -110 9 -255 11 -329 5 -22 -2 -65 -1 -95 3 -40 6 -51 5 -40 -3 12 -9
10 -11 -10 -11 -15 0 -32 6 -39 13 -10 10 -12 9 -9 -3z m954 -47 c-6 -6 -36 9
-36 18 0 5 9 4 20 -3 10 -7 18 -14 16 -15z m190 -44 l19 -22 -25 14 c-14 7
-29 12 -33 11 -5 -1 -6 2 -2 8 9 15 20 12 41 -11z m314 -245 c0 -14 -4 -23
-10 -19 -5 3 -10 15 -10 26 0 10 5 19 10 19 6 0 10 -12 10 -26z m59 -316 c0
-28 -2 -30 -9 -13 -12 28 -12 45 0 45 6 0 10 -15 9 -32z m-1174 -805 c16 -16
18 -16 27 0 13 25 28 21 28 -8 0 -33 32 -49 86 -41 24 3 46 1 49 -4 3 -6 25
-10 49 -10 23 0 46 -3 50 -7 4 -5 11 -8 14 -9 21 -2 62 -25 62 -34 0 -5 13 -7
30 -4 16 4 37 3 47 -1 17 -7 17 -8 -2 -16 -17 -8 -16 -8 5 -3 14 3 33 6 42 7
9 1 14 5 12 9 -8 12 70 10 83 -3 13 -13 63 -1 63 17 0 19 37 36 92 41 37 4 48
1 48 -10 0 -8 10 -21 23 -30 l22 -15 -22 -9 c-21 -8 -22 -9 -5 -43 9 -19 21
-38 26 -42 13 -8 15 -158 3 -158 -5 0 -4 -7 3 -15 11 -13 8 -15 -14 -15 -15 0
-25 4 -22 9 10 15 -118 30 -166 19 -61 -15 -75 -13 -101 16 -21 22 -27 24 -63
16 -21 -5 -54 -10 -72 -10 -19 0 -42 -9 -54 -20 -16 -14 -24 -17 -29 -8 -8 13
-19 6 -71 -41 -32 -28 -36 -22 -11 17 17 25 17 26 0 13 -9 -7 -23 -11 -32 -8
-21 9 -29 -11 -31 -73 -1 -30 -5 -75 -8 -100 -4 -33 -3 -37 2 -15 5 17 14 40
21 50 11 19 12 18 7 -5 -4 -14 -9 -36 -13 -49 -4 -17 -2 -22 6 -17 6 4 11 18
11 31 0 13 4 26 9 30 5 3 8 25 5 50 -3 35 -1 45 11 45 17 0 19 -18 5 -54 -6
-16 -6 -27 0 -31 6 -4 10 0 10 8 0 19 27 30 36 14 4 -7 4 -9 0 -6 -13 12 -56
-41 -56 -67 0 -14 4 -22 10 -19 15 9 11 -27 -5 -49 -14 -19 -15 -18 -17 15
l-1 34 -5 -35 c-5 -33 -5 -34 -12 -10 l-8 25 -1 -27 c-1 -16 -6 -28 -13 -28
-6 0 -8 -3 -5 -7 4 -3 -26 -38 -67 -77 -58 -56 -77 -81 -86 -116 -17 -61 -16
-116 3 -173 25 -72 32 -150 15 -168 -9 -10 -12 -32 -10 -72 5 -68 23 -73 34
-9 8 46 24 82 38 82 4 0 19 -17 31 -37 13 -21 29 -44 36 -51 7 -7 13 -17 13
-22 0 -4 9 -6 20 -3 12 3 19 13 18 27 -1 11 6 38 15 59 17 39 23 40 60 9 9 -8
20 -13 23 -10 3 4 30 -7 61 -23 30 -16 60 -29 65 -29 5 0 22 -8 36 -19 15 -10
50 -22 77 -26 75 -11 239 -8 243 4 2 6 8 11 14 11 6 0 25 12 43 28 70 58 90
71 94 61 2 -6 12 2 22 18 33 48 51 92 45 108 -3 8 0 15 7 15 17 0 36 45 26 62
-6 9 -9 7 -9 -9 0 -13 -4 -23 -8 -23 -5 0 -7 14 -4 30 2 17 10 30 18 30 14 0
18 12 15 37 -1 7 5 23 14 36 8 13 16 43 16 68 2 54 11 72 20 39 6 -23 7 -22 8
8 1 20 -3 31 -9 27 -15 -9 -12 4 5 21 13 14 15 10 16 -33 l2 -48 7 40 c20 123
49 -198 53 -607 1 -83 6 -144 11 -141 5 4 0 -12 -12 -33 -25 -49 -36 -76 -33
-88 2 -9 -9 -39 -45 -125 l-15 -34 -20 22 c-20 22 -35 29 -24 11 3 -5 -1 -23
-10 -40 -8 -16 -14 -32 -13 -34 2 -2 -4 -12 -13 -22 -20 -24 -57 -102 -62
-130 -1 -11 -22 -43 -45 -70 -23 -27 -42 -54 -42 -60 0 -17 -23 -58 -43 -78
-9 -10 -17 -26 -17 -37 0 -12 -7 -19 -19 -19 -14 0 -18 -5 -14 -20 4 -16 0
-20 -20 -20 -13 0 -30 -7 -37 -15 -7 -9 -8 -15 -2 -15 5 0 8 -9 5 -19 -3 -12
-11 -17 -19 -14 -17 6 -17 2 -5 -30 7 -18 6 -30 -4 -43 -8 -11 -15 -14 -15 -9
0 14 -20 -17 -20 -32 0 -7 8 -13 18 -13 16 -1 16 -2 -2 -15 -10 -8 -16 -21
-13 -29 8 -19 -19 -72 -39 -80 -10 -4 -14 -14 -11 -25 6 -23 -10 -51 -28 -51
-8 0 -15 -8 -16 -17 -2 -50 -10 -76 -26 -88 -12 -9 -17 -24 -15 -48 3 -26 -2
-38 -15 -46 -16 -9 -16 -12 -3 -21 13 -9 12 -11 -6 -9 -3 0 -17 -15 -30 -35
-17 -24 -29 -33 -40 -29 -14 5 -15 1 -9 -25 9 -41 0 -55 -25 -42 -18 10 -19 8
-10 -14 9 -23 5 -36 -11 -36 -5 0 -6 6 -3 14 3 8 1 17 -5 21 -7 4 -11 -4 -11
-19 0 -14 -6 -26 -12 -26 -7 0 -21 -14 -31 -31 -12 -21 -23 -30 -35 -27 -10 3
-23 0 -29 -6 -32 -30 -60 -45 -92 -52 -8 -1 -19 -10 -24 -19 -7 -13 -12 -14
-23 -4 -11 9 -14 8 -14 -5 0 -19 -43 -38 -80 -35 -14 2 -36 -1 -50 -6 -14 -4
-81 -8 -149 -8 -109 0 -126 3 -138 19 -7 10 -13 13 -13 6 0 -7 -13 -4 -35 8
-20 11 -42 20 -50 20 -8 0 -15 4 -15 9 0 5 -15 14 -32 21 -61 22 -103 44 -127
68 -14 12 -30 21 -38 18 -7 -3 -13 -1 -13 4 0 6 -13 24 -29 40 -15 17 -39 53
-52 81 -18 36 -29 49 -41 46 -11 -3 -18 2 -20 17 -2 11 -9 20 -16 18 -6 -1
-12 3 -12 9 0 8 -5 8 -15 -1 -12 -10 -15 -10 -15 4 0 9 -5 16 -10 16 -6 0 -9
3 -8 8 1 4 -1 25 -6 46 -6 29 -10 36 -17 25 -7 -11 -9 -11 -9 4 0 9 7 17 14
17 12 0 12 7 -3 38 -19 37 -51 135 -51 155 0 6 -8 19 -17 29 -13 15 -15 23 -6
37 6 10 8 24 3 31 -6 10 -9 8 -13 -6 -3 -13 -5 -10 -6 9 0 16 2 26 7 24 11 -8
6 80 -8 112 -7 17 -21 33 -32 37 -16 5 -19 13 -16 42 4 27 -2 47 -19 75 -13
20 -21 37 -17 37 3 0 -2 7 -10 16 -9 8 -16 22 -16 30 0 24 -31 77 -56 96 -18
14 -22 26 -19 55 2 22 0 31 -5 23 -6 -10 -13 -4 -27 22 -10 19 -27 51 -38 72
-14 27 -24 36 -38 32 -15 -4 -18 0 -15 22 2 21 -2 27 -22 33 -17 5 -19 7 -7 8
16 1 14 7 -13 44 -26 37 -35 65 -39 130 -1 5 -5 6 -10 3 -5 -3 -11 1 -15 9 -3
8 -12 15 -21 15 -14 0 -20 22 -16 64 0 10 -3 24 -9 31 -7 9 -7 21 0 41 7 16 8
45 4 69 -10 51 -6 138 8 190 6 22 11 47 10 55 -1 30 116 62 143 40 19 -16 19
-30 0 -30 -8 0 -15 -4 -15 -10 0 -5 7 -10 15 -10 8 0 15 -4 15 -10 0 -15 43
-34 73 -32 17 2 30 -4 33 -13 4 -9 21 -22 38 -30 17 -8 38 -19 46 -24 46 -29
93 -42 180 -47 85 -5 106 -3 161 16 35 12 74 28 86 36 12 8 28 14 35 14 7 0
49 18 93 39 44 22 83 37 87 35 5 -3 6 -15 2 -28 -3 -12 -6 -29 -8 -37 -2 -8
-8 -27 -14 -42 -15 -37 -16 -36 9 -30 19 5 21 3 16 -18 -3 -13 -2 -31 3 -39 9
-13 10 -13 10 0 0 24 37 90 45 82 5 -4 5 1 2 10 -5 15 32 68 48 68 12 0 4 -34
-12 -47 -10 -8 -12 -12 -5 -8 20 10 14 -10 -11 -33 -13 -12 -28 -19 -33 -15
-5 5 -1 -2 9 -14 18 -20 18 -23 2 -47 -10 -14 -14 -26 -10 -26 4 0 0 -11 -9
-25 -16 -24 -15 -25 8 -31 14 -3 30 -3 35 1 6 3 11 2 11 -3 0 -5 -17 -12 -39
-16 -27 -4 -40 -12 -44 -26 -3 -11 -1 -23 4 -26 5 -3 9 -12 9 -20 0 -9 -5 -12
-12 -8 -7 5 -8 3 -3 -6 4 -7 2 -16 -6 -21 -10 -6 -11 -9 -1 -9 24 0 12 -25
-14 -26 -29 -2 -45 -15 -26 -21 10 -4 10 -7 -1 -17 -13 -10 -47 -134 -47 -170
0 -27 17 -18 33 17 9 18 28 45 42 61 14 15 25 34 25 42 0 7 5 14 10 14 6 0 10
13 10 29 0 37 19 91 33 91 6 0 7 3 4 7 -9 8 13 34 24 28 10 -6 39 87 39 124 0
35 29 170 41 193 5 10 7 23 4 28 -4 6 -2 25 4 43 23 72 37 181 30 244 -5 50
-14 75 -38 109 -17 25 -31 47 -31 50 0 14 -54 74 -66 74 -8 0 -14 5 -14 10 0
6 4 10 9 10 14 0 25 100 12 113 -8 8 -11 2 -12 -24 -1 -51 -13 -87 -23 -71 -5
8 -3 19 3 25 6 6 11 40 11 76 0 51 3 62 12 53 19 -19 23 -14 22 27 -2 53 -11
64 -48 58 -41 -6 -151 14 -134 25 9 5 5 8 -10 8 -13 0 -21 4 -18 9 8 12 -114
19 -138 8 -13 -6 -16 -6 -12 2 6 9 -28 17 -56 12 -5 0 -8 4 -8 10 0 6 -9 8
-20 4 -11 -3 -32 -9 -47 -11 -15 -3 -32 -9 -38 -14 -17 -14 -50 -5 -47 14 3
18 -13 22 -23 6 -4 -6 -11 -8 -16 -5 -5 4 -2 17 7 30 9 14 20 22 25 19 5 -3 9
2 9 12 0 11 6 15 19 11 14 -3 17 0 14 13 -3 10 2 20 12 24 13 4 16 2 11 -9 -3
-9 0 -15 9 -15 8 0 15 7 15 15 0 8 5 15 11 15 13 0 83 60 72 61 -4 1 10 7 32
14 22 7 54 11 70 8 23 -4 26 -2 15 6 -37 26 67 54 192 51 32 0 85 4 118 10 34
6 92 12 129 14 43 2 77 9 92 19 13 9 32 14 45 11 23 -6 47 17 26 24 -14 4 -16
22 -3 22 5 0 17 -8 26 -17z m222 -9 c-3 -3 -12 -4 -19 -1 -8 3 -5 6 6 6 11 1
17 -2 13 -5z m-1207 -278 c0 -3 -4 -8 -10 -11 -5 -3 -10 -1 -10 4 0 6 5 11 10
11 6 0 10 -2 10 -4z m639 -135 c8 -5 9 -11 3 -15 -5 -3 -15 1 -22 9 -14 16 -3
20 19 6z m-14 -31 c3 -5 1 -10 -4 -10 -6 0 -11 5 -11 10 0 6 2 10 4 10 3 0 8
-4 11 -10z m1229 -9 c3 -5 -1 -11 -9 -14 -9 -4 -12 -1 -8 9 6 16 10 17 17 5z
m-1257 -83 c-3 -8 -6 -5 -6 6 -1 11 2 17 5 13 3 -3 4 -12 1 -19z m-567 -98 c0
-4 -6 -11 -12 -13 -7 -3 -4 -6 7 -6 11 -1 31 -11 45 -22 14 -11 20 -18 13 -15
-6 4 -21 -3 -32 -15 -13 -14 -26 -19 -39 -15 -15 5 -20 2 -18 -11 1 -14 -7
-18 -36 -18 -26 0 -38 -5 -38 -14 0 -11 -5 -10 -20 4 -25 22 -21 38 10 46 24
6 24 6 5 15 -11 5 -21 17 -21 27 -1 13 6 17 33 17 19 0 40 6 47 13 15 14 56
20 56 7z m1732 -37 c-6 -3 -10 -8 -8 -12 11 -17 -13 -33 -38 -27 -25 6 -25 7
-7 25 19 19 52 31 61 23 3 -3 -1 -7 -8 -9z m18 -63 c8 -5 12 -12 9 -15 -8 -8
-39 5 -39 16 0 11 11 11 30 -1z m-1473 -66 c26 -9 55 -22 63 -31 13 -13 12
-14 -15 -7 -29 6 -29 6 -10 -9 23 -18 20 -24 -15 -30 -59 -11 -80 -20 -80 -33
0 -8 -7 -14 -16 -14 -10 0 -14 6 -10 15 3 8 1 15 -4 15 -6 0 -10 -7 -10 -15 0
-17 -35 -21 -45 -5 -4 6 -11 8 -16 5 -5 -4 -9 0 -9 8 0 21 -40 29 -41 9 -1
-15 -2 -15 -6 1 -2 9 -9 17 -14 17 -5 0 -8 11 -7 24 1 14 6 22 10 20 4 -3 8 2
8 10 0 34 137 47 217 20z m1291 -5 c6 -1 12 -6 12 -11 0 -4 4 -8 9 -8 5 0 24
-14 41 -30 39 -36 32 -49 -28 -53 -31 -1 -42 -6 -42 -18 0 -14 -8 -15 -52 -8
-30 5 -70 4 -96 -2 -25 -5 -47 -7 -50 -4 -3 3 2 5 11 5 11 0 17 8 17 25 0 17
-4 23 -15 19 -8 -4 -17 1 -21 9 -6 17 -37 15 -60 -4 -8 -7 -18 -9 -22 -5 -7 8
1 14 93 64 55 30 66 32 125 28 36 -3 71 -6 78 -7z m32 -129 c0 -5 8 -10 18
-11 10 0 12 -3 5 -6 -7 -2 -23 3 -35 11 -18 13 -19 16 -5 16 9 0 17 -4 17 -10z
m-370 -9 c0 -6 -10 -17 -22 -26 -16 -11 -19 -18 -11 -23 8 -5 -3 -20 -34 -45
-25 -20 -49 -34 -54 -31 -19 11 -8 34 32 66 23 18 49 41 58 50 18 19 31 22 31
9z m-1030 -41 c0 -5 -4 -10 -10 -10 -5 0 -10 5 -10 10 0 6 5 10 10 10 6 0 10
-4 10 -10z m1270 -10 c0 -5 -4 -10 -10 -10 -5 0 -10 5 -10 10 0 6 5 10 10 10
6 0 10 -4 10 -10z m-1093 -35 c21 -21 30 -35 22 -36 -10 0 -11 -2 -1 -6 13 -5
17 -34 5 -31 -10 1 -83 -31 -83 -37 0 -2 19 -2 43 0 136 14 197 16 197 7 0 -8
-81 -20 -200 -28 -25 -2 -45 -4 -45 -5 0 -1 -18 -3 -40 -4 -22 -2 -51 -4 -65
-5 -14 -1 -27 -1 -30 0 -3 1 -30 4 -60 6 -93 6 -97 8 -94 51 6 74 11 97 21
100 6 2 13 -9 16 -24 16 -72 73 -122 127 -108 14 3 38 9 53 12 36 7 67 55 67
106 0 48 19 49 67 2z m973 -11 c0 -58 31 -98 87 -112 86 -22 147 21 148 104
l0 42 28 -14 c15 -9 27 -23 27 -34 0 -11 9 -25 19 -32 12 -7 17 -17 12 -23 -4
-5 -11 -20 -13 -32 -5 -17 -2 -20 11 -16 13 5 14 4 3 -8 -10 -11 -50 -15 -162
-16 -83 -2 -150 1 -150 5 0 4 -17 7 -38 8 -62 1 -182 25 -182 36 0 10 93 5
148 -9 12 -3 22 -1 22 5 0 12 -77 32 -125 32 -45 0 -43 20 4 33 22 5 37 4 47
-4 11 -9 15 -8 20 5 6 17 71 66 86 66 5 0 8 -16 8 -36z m-770 -5 c0 -30 -19
-32 -46 -6 -22 23 -23 26 -7 29 30 7 53 -3 53 -23z m-905 -29 c3 -5 1 -10 -4
-10 -6 0 -11 5 -11 10 0 6 2 10 4 10 3 0 8 -4 11 -10z m795 -17 c0 -14 -2 -15
-9 -4 -7 11 -9 11 -13 0 -3 -8 -9 -11 -13 -7 -10 9 3 28 21 28 8 0 14 -8 14
-17z m38 5 c-6 -18 -28 -21 -28 -4 0 9 7 16 16 16 9 0 14 -5 12 -12z m202 -53
c0 -5 -5 -3 -10 5 -5 8 -10 20 -10 25 0 6 5 3 10 -5 5 -8 10 -19 10 -25z
m-1421 12 c6 -8 8 -17 4 -21 -4 -4 0 -4 9 -1 9 4 26 1 38 -5 15 -8 20 -8 16
-1 -10 16 3 14 20 -3 7 -8 18 -16 24 -18 11 -3 21 -84 13 -104 -11 -28 -136
67 -156 118 -3 10 -1 20 5 24 7 4 6 9 -3 15 -11 7 -11 9 2 9 9 0 22 -6 28 -13z
m1248 -542 c-9 -18 -13 -20 -15 -9 -5 21 6 46 17 40 5 -4 4 -16 -2 -31z m1451
-673 c2 -7 -3 -12 -12 -12 -9 0 -16 7 -16 16 0 17 22 14 28 -4z m132 -282 c4
-3 10 -14 14 -26 4 -15 2 -21 -9 -21 -9 0 -15 9 -15 23 0 12 -5 24 -12 26 -7
3 -8 9 -3 18 7 12 9 12 13 0 3 -8 8 -17 12 -20z m-58 -52 c-9 -9 -12 -7 -12
12 0 19 3 21 12 12 9 -9 9 -15 0 -24z m-1947 -1288 c3 -5 2 -10 -4 -10 -5 0
-13 5 -16 10 -3 6 -2 10 4 10 5 0 13 -4 16 -10z m1262 -7 c-9 -9 -20 -13 -24
-9 -4 4 -1 11 7 16 25 16 35 11 17 -7z m-58 -11 c9 -10 24 -21 34 -25 9 -3 17
-13 17 -22 0 -18 -20 -21 -20 -2 -1 6 -8 -1 -17 -18 -9 -16 -19 -32 -24 -35
-15 -10 -18 -59 -3 -71 15 -12 17 -10 28 44 4 18 13 27 26 27 26 0 25 -8 -2
-37 -18 -19 -20 -27 -11 -42 9 -14 9 -21 0 -30 -8 -8 -8 -11 2 -11 7 0 9 -5 6
-10 -4 -6 -11 -8 -16 -5 -5 4 -9 -1 -9 -9 0 -10 -9 -16 -26 -16 -14 0 -23 -4
-19 -10 3 -5 12 -7 20 -3 8 3 15 0 15 -6 0 -6 -17 -11 -37 -12 -30 0 -34 -2
-18 -9 18 -7 19 -8 3 -15 -11 -4 -18 -18 -18 -35 0 -22 5 -29 26 -33 15 -2 42
0 61 5 28 8 38 6 54 -8 13 -12 16 -21 9 -28 -12 -12 -13 -53 -1 -60 5 -4 12 0
15 6 3 7 3 0 -1 -17 -3 -16 -12 -37 -19 -46 -8 -9 -11 -19 -7 -23 4 -4 -1 -4
-11 0 -13 5 -17 4 -13 -3 7 -11 -16 -37 -25 -28 -3 3 -11 -1 -18 -10 -7 -8
-21 -15 -31 -15 -11 0 -19 -6 -19 -12 0 -9 -4 -8 -10 2 -8 12 -10 11 -10 -7 0
-13 -6 -23 -15 -23 -7 0 -18 -7 -23 -17 -7 -12 -17 -14 -41 -10 -23 5 -31 3
-31 -8 0 -8 6 -15 13 -16 6 0 -3 -7 -21 -15 -20 -9 -30 -19 -26 -26 4 -6 3 -8
-4 -4 -6 3 -13 2 -17 -4 -4 -6 -11 -8 -16 -5 -5 4 -9 -3 -9 -14 0 -13 -7 -21
-17 -21 -15 0 -15 -1 2 -13 14 -11 15 -16 5 -22 -8 -5 -11 -4 -7 2 4 6 -1 14
-10 17 -9 4 -19 2 -23 -4 -4 -6 -15 -7 -25 -4 -14 6 -17 4 -13 -8 5 -11 -4
-19 -35 -28 -23 -6 -50 -19 -59 -27 -9 -8 -36 -19 -60 -24 -52 -12 -91 -36
-82 -51 4 -7 -1 -8 -16 -3 -24 8 -65 -23 -80 -60 -8 -18 -9 -18 -9 -2 -1 10
-5 16 -11 12 -5 -3 -7 -11 -4 -18 2 -7 -9 -23 -26 -35 -17 -13 -28 -27 -25
-33 4 -5 3 -8 -2 -7 -4 1 -19 -4 -33 -12 -24 -13 -24 -12 -10 5 14 17 13 18
-2 12 -12 -4 -18 -2 -18 8 0 10 -9 14 -25 13 -27 -3 -33 -13 -12 -21 8 -4 9
-8 1 -14 -6 -4 -13 -16 -17 -25 -3 -9 -21 -20 -40 -23 -22 -4 -39 -16 -47 -31
-12 -22 -14 -22 -27 -6 -14 16 -14 16 -9 -1 6 -19 -9 -24 -19 -6 -4 6 -13 8
-21 5 -9 -3 -14 1 -14 11 0 13 -3 14 -12 5 -18 -18 -28 -14 -28 11 0 16 -3 18
-9 9 -12 -19 -89 21 -101 52 -6 17 -16 24 -35 24 -15 0 -34 7 -43 17 -10 10
-12 15 -6 12 6 -3 11 0 11 8 0 11 -4 12 -13 4 -15 -12 -37 -3 -29 11 3 5 -6
12 -21 16 -17 4 -22 9 -13 14 6 5 9 15 6 25 -4 9 -11 13 -17 10 -6 -3 -13 1
-16 10 -4 9 -12 14 -19 11 -7 -2 -12 3 -11 12 1 12 -6 16 -24 15 -24 -2 -24
-2 3 8 29 11 37 29 13 29 -8 0 -18 5 -22 12 -5 7 -3 8 7 3 12 -7 12 -6 1 7
-10 13 -11 22 -2 38 8 15 9 25 2 32 -7 7 -7 18 0 34 8 18 16 22 37 18 22 -4
28 0 39 25 8 17 18 31 23 31 15 0 58 53 59 72 0 9 4 19 9 22 4 3 9 32 10 63 2
94 11 143 28 143 10 0 13 6 9 16 -9 23 3 37 20 23 11 -9 14 -6 15 17 2 28 2
27 10 -6 l7 -35 0 40 c-1 60 0 65 21 65 10 0 24 7 31 15 7 8 18 15 24 15 6 0
4 -4 -3 -9 -13 -8 -12 -15 5 -46 18 -34 51 -53 82 -47 7 2 11 -3 10 -10 -2 -7
3 -12 10 -11 11 3 17 -10 13 -31 -1 -5 19 -6 44 -4 38 5 47 2 56 -13 12 -23
64 -27 55 -4 -8 23 13 18 34 -7 15 -19 22 -21 37 -12 10 6 18 18 18 27 0 9 6
22 13 29 9 9 12 6 13 -17 0 -17 3 -24 6 -17 2 6 9 12 15 12 6 0 19 12 30 26
15 18 24 22 31 15 16 -16 37 -13 37 4 0 12 39 42 48 37 1 -1 11 -2 21 -2 14 0
18 5 14 20 -4 13 2 27 16 39 11 10 21 23 21 30 0 6 7 11 15 11 8 0 15 5 15 10
0 6 -7 10 -15 10 -8 0 -15 5 -15 10 0 6 9 10 20 10 14 0 20 7 20 24 0 18 8 27
30 35 17 5 30 14 30 20 0 5 8 10 18 10 87 2 142 8 153 17 8 6 26 14 42 18 15
3 27 11 27 16 0 6 8 10 18 10 9 0 31 9 47 20 36 24 34 24 54 2z m-1172 -24
c-3 -7 -5 -2 -5 12 0 14 2 19 5 13 2 -7 2 -19 0 -25z m1263 -2 c0 -8 -4 -17
-9 -21 -12 -7 -24 12 -16 25 9 15 25 12 25 -4z m-1270 -256 c0 -5 -5 -10 -11
-10 -5 0 -7 5 -4 10 3 6 8 10 11 10 2 0 4 -4 4 -10z m-265 -258 c-5 -4 -10
-13 -10 -21 0 -8 -6 -16 -12 -18 -7 -3 -13 2 -13 9 0 17 20 38 35 38 6 0 7 -3
0 -8z m45 -12 c0 -5 -2 -10 -4 -10 -3 0 -8 5 -11 10 -3 6 -1 10 4 10 6 0 11
-4 11 -10z m0 -36 c0 -7 -27 -34 -34 -34 -4 0 -1 9 6 20 12 19 28 27 28 14z
m-50 -38 c0 -11 -19 -15 -25 -6 -3 5 1 10 9 10 9 0 16 -2 16 -4z m1485 -16
c-3 -5 -12 -10 -18 -10 -7 0 -6 4 3 10 19 12 23 12 15 0z m-330 -200 c-3 -5
-11 -10 -16 -10 -6 0 -7 5 -4 10 3 6 11 10 16 10 6 0 7 -4 4 -10z m-35 -14 c0
-2 -18 -15 -40 -30 -25 -17 -37 -21 -34 -11 4 8 10 15 16 15 5 0 16 7 24 15
14 14 34 20 34 11z m-110 -80 c0 -2 -7 -7 -16 -10 -8 -3 -12 -2 -9 4 6 10 25
14 25 6z m-49 -29 c-8 -8 -14 -7 -23 2 -11 10 -9 11 6 5 15 -6 17 -4 11 6 -6
9 -4 11 4 5 9 -5 10 -10 2 -18z m-61 -32 c-7 -9 -15 -13 -19 -10 -3 3 1 10 9
15 21 14 24 12 10 -5z m-151 -76 c-24 -15 -29 -10 -11 11 10 12 18 16 21 9 2
-6 -3 -15 -10 -20z"/>
<path d="M3991 6004 c0 -11 3 -14 6 -6 3 7 2 16 -1 19 -3 4 -6 -2 -5 -13z"/>
<path d="M4387 5983 c-14 -50 -17 -73 -8 -73 4 0 11 19 15 41 7 43 2 65 -7 32z"/>
<path d="M3932 5965 c0 -16 4 -41 8 -55 8 -24 8 -24 8 5 0 17 -4 41 -8 55 -8
24 -8 24 -8 -5z"/>
<path d="M3961 5964 c0 -11 3 -14 6 -6 3 7 2 16 -1 19 -3 4 -6 -2 -5 -13z"/>
<path d="M4270 5147 c0 -9 6 -17 13 -17 9 0 8 -3 -2 -9 -7 -5 -11 -17 -8 -27
3 -11 8 -31 11 -46 4 -16 11 -28 16 -28 15 0 0 112 -16 130 -12 12 -14 12 -14
-3z"/>
<path d="M2830 4960 c0 -5 5 -10 11 -10 5 0 7 5 4 10 -3 6 -8 10 -11 10 -2 0
-4 -4 -4 -10z"/>
<path d="M4425 4761 c3 -24 11 -53 18 -65 12 -21 12 -20 15 6 2 15 -6 44 -18
65 l-21 38 6 -44z"/>
<path d="M3733 4543 c-3 -8 -3 -35 1 -61 6 -51 10 -56 121 -136 41 -30 71 -60
77 -77 6 -18 17 -29 29 -29 15 0 18 -5 13 -24 -4 -19 0 -28 18 -40 13 -8 32
-16 43 -16 11 0 48 -3 83 -6 41 -4 68 -2 77 6 8 6 19 9 24 6 5 -4 28 1 50 10
36 14 47 28 42 57 0 4 8 7 19 7 13 0 22 9 27 27 3 16 22 44 41 63 53 55 85
132 77 185 -6 42 -7 44 -31 35 -13 -5 -24 -6 -24 -3 0 4 -5 2 -12 -5 -7 -7
-20 -12 -30 -12 -10 0 -18 -4 -18 -10 0 -5 -7 -10 -15 -10 -8 0 -15 -4 -15
-10 0 -5 -8 -10 -19 -10 -10 0 -36 -12 -57 -27 -36 -24 -48 -27 -136 -27 -93
-1 -98 0 -126 27 -29 28 -125 71 -135 61 -3 -4 -12 -2 -19 2 -7 5 -32 14 -56
20 -36 9 -45 9 -49 -3z"/>
<path d="M3790 4220 c0 -5 5 -10 10 -10 6 0 10 5 10 10 0 6 -4 10 -10 10 -5 0
-10 -4 -10 -10z"/>
<path d="M3453 4198 c-21 -10 -28 -21 -20 -32 1 -2 -6 -13 -16 -23 -20 -22
-14 -83 8 -83 8 0 15 -6 18 -12 3 -10 7 -10 20 1 14 11 17 11 17 0 0 -8 5 -6
13 6 10 13 16 15 21 6 4 -6 12 -9 17 -5 11 6 95 -30 120 -52 9 -8 20 -14 25
-13 17 4 65 -21 59 -31 -3 -5 1 -10 9 -10 9 0 16 -4 16 -10 0 -5 -10 -10 -22
-10 -12 0 -18 -3 -15 -7 4 -3 2 -12 -4 -20 -9 -10 -8 -13 4 -13 8 0 20 -6 26
-13 6 -8 28 -19 50 -26 22 -6 54 -25 71 -41 18 -17 38 -30 45 -30 8 0 15 -10
17 -22 2 -16 9 -22 21 -20 15 3 17 -1 12 -17 -5 -15 -2 -21 9 -21 10 0 16 -9
16 -22 0 -19 2 -20 10 -8 8 13 10 12 10 -2 0 -10 8 -18 18 -19 11 -1 9 -4 -8
-9 -19 -6 -12 -8 32 -9 52 -1 56 1 51 19 -3 11 -9 23 -14 26 -5 3 -9 15 -9 28
0 20 4 22 45 21 42 -2 45 -1 39 19 -4 11 -14 27 -23 33 -15 12 -15 14 1 26 35
27 25 40 -32 43 -78 5 -100 12 -100 32 0 10 -3 13 -8 6 -12 -18 -53 -23 -104
-13 -26 6 -51 10 -54 9 -4 -1 -11 5 -16 14 -5 9 -17 16 -27 16 -10 0 -18 6
-18 13 0 14 65 15 100 2 14 -6 17 -2 17 20 0 43 23 58 82 53 30 -3 56 -12 63
-21 9 -13 12 -13 21 -1 6 10 34 15 89 18 l81 4 2 -32 c2 -23 0 -27 -8 -16 -12
18 -13 1 -2 -18 14 -22 74 -16 168 17 50 17 105 31 121 31 36 0 103 26 103 40
0 6 5 10 12 10 6 0 9 -3 5 -6 -3 -4 1 -13 9 -21 22 -23 60 7 74 57 10 35 8 43
-10 63 -12 12 -24 22 -28 22 -19 1 -52 27 -52 41 0 8 -5 12 -10 9 -6 -4 -8
-11 -5 -16 4 -5 -3 -9 -14 -9 -10 0 -22 -6 -24 -12 -3 -7 -6 -2 -7 12 0 22 -2
23 -13 9 -13 -16 -43 -31 -66 -33 -8 -1 -16 -7 -19 -15 -2 -8 0 -11 5 -8 5 3
10 0 10 -8 0 -8 -3 -13 -6 -12 -3 1 -16 -4 -28 -11 -24 -13 -29 -13 -153 -12
-47 1 -113 -5 -148 -11 -51 -10 -79 -10 -145 0 -45 7 -113 14 -152 17 -111 6
-132 12 -159 45 -22 26 -28 29 -48 19 -21 -10 -21 -10 -5 3 25 20 22 23 -22
19 -31 -3 -41 0 -49 15 -12 22 -83 28 -119 11z"/>
<path d="M3820 4195 c-14 -16 -3 -20 19 -6 8 5 9 11 3 15 -5 3 -15 -1 -22 -9z"/>
<path d="M3240 4170 c0 -5 5 -10 11 -10 5 0 7 5 4 10 -3 6 -8 10 -11 10 -2 0
-4 -4 -4 -10z"/>
<path d="M3910 3935 c0 -8 4 -15 10 -15 5 0 7 7 4 15 -4 8 -8 15 -10 15 -2 0
-4 -7 -4 -15z"/>
<path d="M4466 3935 c-3 -8 -1 -15 4 -15 13 0 22 18 11 24 -5 3 -11 -1 -15 -9z"/>
<path d="M4230 3569 c0 -5 5 -7 10 -4 6 3 10 8 10 11 0 2 -4 4 -10 4 -5 0 -10
-5 -10 -11z"/>
<path d="M4525 2470 c-3 -5 -1 -10 4 -10 6 0 11 5 11 10 0 6 -2 10 -4 10 -3 0
-8 -4 -11 -10z"/>
<path d="M4505 2440 c-4 -6 -3 -16 3 -22 13 -13 23 4 13 21 -7 10 -10 10 -16
1z"/>
<path d="M4340 2340 c0 -5 5 -10 10 -10 6 0 10 5 10 10 0 6 -4 10 -10 10 -5 0
-10 -4 -10 -10z"/>
<path d="M4516 2222 c-4 -13 -5 -26 -2 -29 10 -11 18 4 14 29 l-4 23 -8 -23z"/>
<path d="M3481 2184 c0 -11 3 -14 6 -6 3 7 2 16 -1 19 -3 4 -6 -2 -5 -13z"/>
<path d="M4651 2128 c-17 -27 -9 -33 13 -9 10 10 13 21 9 24 -5 3 -15 -3 -22
-15z"/>
<path d="M3690 2130 c0 -5 12 -10 28 -10 21 0 24 2 12 10 -20 13 -40 13 -40 0z"/>
<path d="M3815 1789 c-10 -15 3 -25 16 -12 7 7 7 13 1 17 -6 3 -14 1 -17 -5z"/>
<path d="M3201 1774 c0 -11 3 -14 6 -6 3 7 2 16 -1 19 -3 4 -6 -2 -5 -13z"/>
<path d="M4325 1770 c3 -5 8 -10 11 -10 2 0 4 5 4 10 0 6 -5 10 -11 10 -5 0
-7 -4 -4 -10z"/>
<path d="M3762 1610 c0 -14 2 -19 5 -12 2 6 2 18 0 25 -3 6 -5 1 -5 -13z"/>
<path d="M3792 1594 c4 -21 22 -23 26 -1 2 10 -3 17 -13 17 -10 0 -15 -6 -13
-16z"/>
<path d="M3761 1534 c0 -11 3 -14 6 -6 3 7 2 16 -1 19 -3 4 -6 -2 -5 -13z"/>
<path d="M3687 1502 c-10 -10 -17 -22 -17 -27 0 -4 9 2 20 15 11 13 20 25 20
27 0 7 -8 2 -23 -15z"/>
<path d="M3865 1500 c-3 -5 1 -10 9 -10 9 0 16 5 16 10 0 6 -4 10 -9 10 -6 0
-13 -4 -16 -10z"/>
<path d="M3700 1400 c-8 -5 -10 -10 -5 -10 6 0 17 5 25 10 8 5 11 10 5 10 -5
0 -17 -5 -25 -10z"/>
<path d="M17 7611 c-9 -40 -16 -108 -16 -150 1 -42 4 -66 6 -54 2 13 15 31 28
42 27 20 35 64 18 96 -6 11 -9 32 -6 46 2 14 1 41 -4 60 -9 33 -10 33 -26 -40z"/>
<path d="M330 6211 c0 -46 -29 -73 -88 -81 -29 -3 -52 -3 -52 2 0 24 -17 2
-29 -36 -7 -25 -20 -51 -29 -59 -28 -24 -79 -47 -107 -47 l-25 0 0 -107 0
-108 20 25 c11 14 20 31 20 38 0 6 4 12 10 12 5 0 16 16 24 35 8 19 18 35 21
35 3 0 0 -10 -6 -22 -11 -21 -11 -22 4 -9 10 7 17 26 17 42 0 16 5 29 11 29 5
0 7 -6 4 -12 -4 -7 1 -4 9 6 9 11 28 50 43 88 24 57 32 68 52 68 14 0 44 9 68
21 41 20 43 23 43 65 0 24 -2 44 -5 44 -3 0 -5 -13 -5 -29z"/>
<path d="M5652 5190 c0 -19 2 -27 5 -17 2 9 2 25 0 35 -3 9 -5 1 -5 -18z"/>
<path d="M2452 5155 c0 -16 2 -22 5 -12 2 9 2 23 0 30 -3 6 -5 -1 -5 -18z"/>
<path d="M2460 5102 c0 -22 40 -92 73 -129 17 -19 44 -53 59 -76 15 -23 28
-38 28 -34 0 12 -75 121 -96 137 -9 8 -28 38 -40 65 -13 28 -24 44 -24 37z"/>
<path d="M5651 5074 c0 -11 3 -14 6 -6 3 7 2 16 -1 19 -3 4 -6 -2 -5 -13z"/>
<path d="M5626 5002 c-10 -21 -40 -61 -66 -88 -27 -27 -49 -53 -49 -59 0 -17
99 97 121 138 10 22 18 41 15 43 -2 2 -12 -13 -21 -34z"/>
<path d="M2647 4900 c3 -11 7 -20 9 -20 2 0 4 9 4 20 0 11 -4 20 -9 20 -5 0
-7 -9 -4 -20z"/>
<path d="M2640 4815 c0 -5 5 -17 10 -25 5 -8 10 -10 10 -5 0 6 -5 17 -10 25
-5 8 -10 11 -10 5z"/>
<path d="M2716 4718 c13 -23 37 -48 46 -48 19 0 6 38 -17 48 -33 15 -38 15
-29 0z"/>
<path d="M2692 4640 c0 -14 2 -19 5 -12 2 6 2 18 0 25 -3 6 -5 1 -5 -13z"/>
<path d="M2703 4575 c0 -22 2 -30 4 -17 2 12 2 30 0 40 -3 9 -5 -1 -4 -23z"/>
</g>
</svg>
